<svg width="26" height="25" viewBox="0 0 26 25" fill="none" xmlns="http://www.w3.org/2000/svg">
<path d="M12.3204 1.3665C12.6198 0.445193 13.9232 0.445193 14.2225 1.3665L16.5405 8.50054C16.6744 8.91256 17.0583 9.19152 17.4916 9.19152H24.9927C25.9615 9.19152 26.3642 10.4311 25.5805 11.0005L19.512 15.4096C19.1615 15.6643 19.0148 16.1156 19.1487 16.5276L21.4667 23.6617C21.766 24.583 20.7115 25.3491 19.9278 24.7797L13.8593 20.3706C13.5088 20.116 13.0342 20.116 12.6837 20.3706L6.61512 24.7797C5.8314 25.3491 4.77692 24.583 5.07628 23.6617L7.39426 16.5276C7.52814 16.1156 7.38148 15.6643 7.03099 15.4096L0.962422 11.0005C0.178709 10.4311 0.581484 9.19152 1.55021 9.19152H9.05137C9.4846 9.19152 9.86855 8.91256 10.0024 8.50054L12.3204 1.3665Z" fill="#FFB545"/>
</svg>
