<svg width="27" height="28" viewBox="0 0 27 28" fill="none" xmlns="http://www.w3.org/2000/svg">
<rect y="0.960938" width="26.9717" height="26.9717" rx="13.4859" fill="#1D9BF0"/>
<path d="M11.0184 21.5607C16.9994 21.5607 20.2697 16.6046 20.2697 12.3093C20.2697 12.1677 20.2697 12.0261 20.2629 11.8913C20.8968 11.4328 21.4497 10.8596 21.888 10.2055C21.3081 10.4618 20.681 10.6371 20.0202 10.718C20.6945 10.3134 21.2069 9.6796 21.4497 8.91764C20.8226 9.2885 20.1281 9.55822 19.3864 9.70657C18.793 9.07273 17.9501 8.68164 17.0128 8.68164C15.2192 8.68164 13.7627 10.1381 13.7627 11.9317C13.7627 12.188 13.7897 12.4375 13.8504 12.6735C11.1465 12.5386 8.75275 11.244 7.14793 9.27502C6.87147 9.75377 6.70964 10.3134 6.70964 10.9068C6.70964 12.0329 7.28279 13.0308 8.15937 13.6107C7.62668 13.5972 7.1277 13.4489 6.68941 13.2062C6.68941 13.2196 6.68941 13.2331 6.68941 13.2466C6.68941 14.8245 7.80873 16.1326 9.29892 16.436C9.02921 16.5102 8.73926 16.5506 8.44257 16.5506C8.23354 16.5506 8.03125 16.5304 7.82896 16.49C8.24028 17.7846 9.44053 18.7219 10.8633 18.7488C9.7507 19.6187 8.34817 20.1379 6.82427 20.1379C6.56129 20.1379 6.30506 20.1244 6.04883 20.0907C7.47159 21.0212 9.18429 21.5607 11.0184 21.5607Z" fill="white"/>
</svg>
